<svg id="Grupo_630" data-name="Grupo 630" xmlns="http://www.w3.org/2000/svg" width="47.945" height="62.964" viewBox="0 0 47.945 62.964">
  <path id="Sustracci贸n_17" data-name="Sustracci贸n 17" d="M6.6,43.757c-.4,0-1.175-.778-2.124-2.133C2.16,38.324-.614,32.482.12,30.464c.525-1.444.826-1.629,1.03-1.629a.584.584,0,0,1,.254.08.576.576,0,0,0,.247.08.411.411,0,0,0,.313-.2c.487-.624.366-1.705.167-3.5-.053-.473-.112-1.008-.167-1.6A22.913,22.913,0,0,1,1.9,19.891c.032-.673.068-1.435.068-2.511,0-2.188.247-2.222.789-2.3a2.06,2.06,0,0,0,.616-.161c.924-.42,1.477-.983,1.932-2.9.483-2.031,2.275-4.528,4.917-6.85,1.654-1.455,6.989-1.761,11.172-1.761.4,0,.816,0,1.231.008.658-.051,1.315-.1,1.951-.14C26.89,2.24,30.18.558,30.239.082c.007-.054.032-.082.076-.082.343,0,1.8,1.74,2.686,3.088,3.665.12,5.985.586,6.892,1.383.947.832,1.729,1.424,2.358,1.9,1.29.976,2,1.513,2.3,2.754.061.256.113.488.161.7.3,1.326.412,1.822,1.244,2.2.587.266.461,1.112.271,2.393a19.609,19.609,0,0,0-.271,2.963c0,1.075.036,1.838.068,2.511a22.913,22.913,0,0,1-.068,3.813c-.055.587-.114,1.121-.167,1.592-.2,1.793-.319,2.876.167,3.5a.409.409,0,0,0,.312.2.574.574,0,0,0,.244-.079.6.6,0,0,1,.257-.081c.2,0,.505.185,1.031,1.629.77,2.121-1.611,7.658-3.525,10.388-.7,1-1.291,1.555-1.656,1.555a.29.29,0,0,1-.233-.107c-.342-.409-.065-1.937.255-3.706.1-.555.2-1.128.295-1.7A4.254,4.254,0,0,0,44.2,33.78c0-2.179-1.477-3.952-3.293-3.952a3.451,3.451,0,0,0-3.152,2.807l-.056.025a52.543,52.543,0,0,0,1.4-9.484c0-.857.052-1.728.1-2.57.168-2.8.312-5.213-1.507-5.685a93.256,93.256,0,0,0-10.446-.755v.141c-.006,0-.028,0-.064,0h0c-.146,0-14.627.007-16.966.613-1.82.472-1.675,2.888-1.507,5.685.05.842.1,1.713.1,2.57a52.5,52.5,0,0,0,1.4,9.484l-.452-.2A3.4,3.4,0,0,0,6.66,29.828c-1.815,0-3.292,1.773-3.292,3.952a3.836,3.836,0,0,0,2.673,3.881l.127.641c.5,2.525.977,4.908.6,5.372A.212.212,0,0,1,6.6,43.757Z" transform="translate(0)" fill="#0f204b"/>
  <path id="Uni贸n_39" data-name="Uni贸n 39" d="M18.824,25.328l-.123,0-.123,0h0v-.01a43.2,43.2,0,0,1-7.5-1.04A14.935,14.935,0,0,1,5.3,21.5a12.645,12.645,0,0,1-4.164-5.987A35.214,35.214,0,0,1,0,5.866C-.02,2.711.172.16.174.134A2.19,2.19,0,0,1,.9,0C1.436,0,2.088.256,2.13,1.474A16.172,16.172,0,0,1,2,3.34,22.048,22.048,0,0,0,1.878,8.4c.27,2.041,1.063,3.376,2.426,4.083a4.1,4.1,0,0,0,1.864.521,2.963,2.963,0,0,0,2.393-1.334A12.044,12.044,0,0,0,9.923,9.146c.132-.3.257-.59.375-.826a3.325,3.325,0,0,1,2.919-1.665,4.461,4.461,0,0,0,.7-.127,7.022,7.022,0,0,1,1.625-.113c1.22,0,2.72.081,3.154.106.435-.025,1.934-.106,3.154-.106a7.026,7.026,0,0,1,1.625.113,4.44,4.44,0,0,0,.7.127A3.325,3.325,0,0,1,27.1,8.321c.118.236.242.521.375.826a12.014,12.014,0,0,0,1.362,2.528,2.963,2.963,0,0,0,2.393,1.334,4.1,4.1,0,0,0,1.864-.521c1.362-.706,2.155-2.041,2.426-4.083A22.079,22.079,0,0,0,35.4,3.34a16.172,16.172,0,0,1-.133-1.866C35.312.256,35.963,0,36.5,0a2.19,2.19,0,0,1,.723.134c0,.026.195,2.577.172,5.732a35.236,35.236,0,0,1-1.132,9.645A12.648,12.648,0,0,1,32.1,21.5a14.93,14.93,0,0,1-5.779,2.78,43.188,43.188,0,0,1-7.5,1.04v.01h0Zm3.067-5.445a2.731,2.731,0,0,0,1.332-.405,7.358,7.358,0,0,0,3.3-4.49,10.5,10.5,0,0,0,.4-2.836H10.471a10.444,10.444,0,0,0,.4,2.836,7.354,7.354,0,0,0,3.305,4.49,2.729,2.729,0,0,0,1.332.405c1.548,0,2.365-1.9,2.777-3.488l.124,0c.1,0,.192,0,.288,0s.192,0,.288,0l.124,0C19.526,17.987,20.343,19.883,21.89,19.883Z" transform="translate(5.695 37.636)" fill="#7ba4d9"/>
</svg>
