<svg xmlns="http://www.w3.org/2000/svg" width="48.128" height="63.204" viewBox="0 0 48.128 63.204">
  <g id="Grupo_637" data-name="Grupo 637" transform="translate(-435 -3414.333)">
    <path id="Sustracci贸n_15" data-name="Sustracci贸n 15" d="M6.62,43.924c-.4,0-1.179-.781-2.132-2.141-2.32-3.312-5.1-9.176-4.367-11.2.527-1.45.829-1.636,1.034-1.636a.586.586,0,0,1,.255.08.579.579,0,0,0,.248.08.413.413,0,0,0,.314-.2c.488-.627.368-1.712.168-3.51-.053-.474-.113-1.012-.168-1.6A23,23,0,0,1,1.9,19.967c.032-.675.069-1.441.069-2.52,0-2.2.248-2.231.792-2.307a2.068,2.068,0,0,0,.618-.161c.928-.421,1.483-.987,1.94-2.908.485-2.039,2.284-4.545,4.936-6.876,1.661-1.461,7.015-1.767,11.215-1.767.4,0,.819,0,1.236.008.661-.052,1.32-.1,1.959-.14C26.992,2.249,30.3.56,30.355.082c.007-.054.032-.082.076-.082.345,0,1.811,1.746,2.7,3.1,3.679.121,6.007.588,6.919,1.389.95.835,1.736,1.43,2.367,1.907,1.294.979,2.008,1.519,2.3,2.765.061.257.114.489.162.7.3,1.331.414,1.829,1.248,2.208.589.268.463,1.117.272,2.4a19.683,19.683,0,0,0-.272,2.974c0,1.079.036,1.845.069,2.52a23,23,0,0,1-.069,3.827c-.055.589-.115,1.125-.167,1.6-.2,1.8-.321,2.887.167,3.514a.411.411,0,0,0,.313.2.576.576,0,0,0,.245-.079.6.6,0,0,1,.258-.082c.2,0,.507.186,1.035,1.636.773,2.129-1.618,7.687-3.538,10.428-.705,1.007-1.3,1.561-1.662,1.561a.291.291,0,0,1-.233-.108c-.343-.411-.066-1.944.256-3.72.1-.557.205-1.133.3-1.706a4.27,4.27,0,0,0,1.273-3.127c0-2.188-1.483-3.967-3.306-3.967A3.464,3.464,0,0,0,37.9,32.76l-.056.025a52.743,52.743,0,0,0,1.41-9.52c0-.861.052-1.734.1-2.579.168-2.808.314-5.233-1.513-5.707a93.612,93.612,0,0,0-10.486-.758v.142c-.006,0-.028,0-.064,0h0c-.147,0-14.683.007-17.031.615-1.827.474-1.681,2.9-1.513,5.706.051.845.1,1.719.1,2.58a52.7,52.7,0,0,0,1.41,9.52l-.454-.2a3.409,3.409,0,0,0-3.117-2.643c-1.822,0-3.3,1.78-3.3,3.967a3.85,3.85,0,0,0,2.683,3.9l.128.643c.5,2.535.981,4.927.6,5.392A.213.213,0,0,1,6.62,43.924Z" transform="translate(435 3414.333)" fill="#0f204b"/>
    <path id="Sustracci贸n_16" data-name="Sustracci贸n 16" d="M21.652,26.453h0c-3.965,0-9.378-.429-11.117-1.067C9.3,24.934,7.3,23.313,5.323,21.156A22.2,22.2,0,0,1,1.1,15.074C-.117,11.9-.21,1.838.27,1.14A.075.075,0,0,1,.327,1.1c.043,0,.089.064.137.19C1.231,3.3,4.575,4.279,4.717,4.32A13.619,13.619,0,0,1,6.926,5.765c.842.607,1.8,1.295,2.639,1.817.568.351,2.121.529,4.616.529,2.839,0,6.281-.221,8.8-.383,1.122-.072,2.007-.129,2.544-.147,2.54-.085,6.028-1.744,8.021-3.262A26.893,26.893,0,0,0,37.552,0a.412.412,0,0,1,0,.07c.028,1.961.122,11.9-.753,15-.572,2.026-3.248,4.894-4.793,6.424A28.527,28.527,0,0,1,26.489,26,15.9,15.9,0,0,1,21.652,26.453ZM10.711,13.222a10.341,10.341,0,0,0,7.934,4.232H18.8a10.361,10.361,0,0,0,7.953-4.233Z" transform="translate(440.826 3451.084)" fill="#7ba4d9"/>
  </g>
</svg>
