<svg xmlns="http://www.w3.org/2000/svg" width="47.326" height="65.183" viewBox="0 0 47.326 65.183">
  <g id="Grupo_636" data-name="Grupo 636" transform="translate(-619 -3414.333)">
    <path id="Sustracción_24" data-name="Sustracción 24" d="M6.51,43.192c-.4,0-1.159-.768-2.1-2.106C2.132,37.829-.606,32.063.119,30.071c.518-1.425.815-1.608,1.017-1.608a.576.576,0,0,1,.251.079.569.569,0,0,0,.244.079.406.406,0,0,0,.309-.2c.48-.616.362-1.683.165-3.451-.052-.466-.111-1-.165-1.576a22.617,22.617,0,0,1-.067-3.763c.032-.664.067-1.417.067-2.478,0-2.159.244-2.193.779-2.268a2.033,2.033,0,0,0,.608-.159c.913-.414,1.458-.97,1.907-2.86.477-2,2.246-4.469,4.854-6.761,1.633-1.436,6.9-1.738,11.028-1.738.4,0,.805,0,1.215.008.65-.051,1.3-.1,1.926-.138C26.543,2.211,29.79.551,29.849.081c.007-.053.032-.081.075-.081.339,0,1.781,1.717,2.652,3.048,3.618.119,5.907.578,6.8,1.366.934.822,1.707,1.406,2.327,1.875,1.273.963,1.974,1.493,2.266,2.719.06.252.112.481.159.69.3,1.309.407,1.8,1.228,2.171.579.263.455,1.1.268,2.362a19.356,19.356,0,0,0-.268,2.925c0,1.061.036,1.814.067,2.478a22.618,22.618,0,0,1-.067,3.763c-.054.579-.113,1.107-.164,1.572-.2,1.77-.315,2.838.164,3.455a.4.4,0,0,0,.308.2.566.566,0,0,0,.241-.078.587.587,0,0,1,.254-.08c.2,0,.5.183,1.018,1.608.761,2.094-1.591,7.559-3.479,10.254-.694.99-1.274,1.535-1.634,1.535a.286.286,0,0,1-.23-.106c-.338-.4-.065-1.912.252-3.658.1-.548.2-1.114.291-1.677a4.2,4.2,0,0,0,1.251-3.075c0-2.151-1.458-3.9-3.251-3.9a3.407,3.407,0,0,0-3.111,2.771l-.055.024A51.864,51.864,0,0,0,38.6,22.877c0-.846.051-1.705.1-2.536.165-2.761.308-5.145-1.488-5.612A92.053,92.053,0,0,0,26.9,13.983v.139c-.006,0-.027,0-.063,0h0c-.144,0-14.438.007-16.747.6-1.8.466-1.653,2.85-1.488,5.611.05.831.1,1.69.1,2.537a51.823,51.823,0,0,0,1.387,9.361l-.446-.2a3.352,3.352,0,0,0-3.065-2.6c-1.792,0-3.25,1.75-3.25,3.9a3.786,3.786,0,0,0,2.638,3.831l.126.632c.5,2.493.965,4.845.589,5.3A.209.209,0,0,1,6.51,43.192Z" transform="translate(619 3414.333)" fill="#0f204b"/>
    <path id="Trazado_1464" data-name="Trazado 1464" d="M628.52,3478.8s1.051,11.272,1.719,12.94,9.178,8.677,12.682,9.177,4.885.752,4.885.752l4.459-.752a35.035,35.035,0,0,0,9.011-7.843c3.337-4.505,3.387-12.473,3.888-15.477" transform="translate(-3.563 -23.678)" fill="none" stroke="#0f204b" stroke-width="3"/>
  </g>
</svg>
