<svg id="Grupo_498" data-name="Grupo 498" xmlns="http://www.w3.org/2000/svg" width="20.223" height="20.223" viewBox="0 0 20.223 20.223">
  <path id="Exclusion_34" data-name="Exclusion 34" d="M14.2,20.223H6.024A6.031,6.031,0,0,1,0,14.2V6.024A6.031,6.031,0,0,1,6.024,0H14.2a6.031,6.031,0,0,1,6.024,6.024V14.2A6.031,6.031,0,0,1,14.2,20.223ZM6.024,2.034a4,4,0,0,0-3.99,3.99V14.2a3.994,3.994,0,0,0,3.99,3.99H14.2a3.994,3.994,0,0,0,3.99-3.99V6.024a3.994,3.994,0,0,0-3.99-3.99Zm4.087,13.307a5.23,5.23,0,1,1,5.231-5.23A5.236,5.236,0,0,1,10.112,15.342Zm0-8.426a3.2,3.2,0,1,0,3.2,3.2A3.2,3.2,0,0,0,10.112,6.916Z" transform="translate(0 0)" fill="#fff"/>
  <ellipse id="Oval-path" cx="1.253" cy="1.253" rx="1.253" ry="1.253" transform="translate(14.099 3.667)" fill="#fff"/>
</svg>
