<svg id="Grupo_35" data-name="Grupo 35" xmlns="http://www.w3.org/2000/svg" width="40.232" height="51.234" viewBox="0 0 40.232 51.234">
  <path id="Trazado_84" data-name="Trazado 84" d="M4949.361,701.586c0-.769-.437-1.2-1.357-1.2-.1,0-.119,0-.228.006v2.531H4948A1.2,1.2,0,0,0,4949.361,701.586Z" transform="translate(-4918.819 -694.469)" fill="#fdfdfd"/>
  <path id="Trazado_85" data-name="Trazado 85" d="M3980.428,498.723a169.524,169.524,0,0,0-20.221,1.1V529.84a20.117,20.117,0,1,0,40.232-.262V499.823A161.987,161.987,0,0,0,3980.428,498.723Zm6.787,4.887a21.052,21.052,0,0,1,2.28-.128c1.921,0,3.1.615,3.1,2.332,0,1.563-1.1,2.46-2.842,2.46h-.666v1.461h-1.871Zm-3.278,0h1.87v6.126h-1.87Zm-4.329,0h1.87v4.9h1.793l-.282,1.231h-3.381Zm-3.252,0h1.87v6.126h-1.87Zm3.962,8.811a17.471,17.471,0,0,1,16.768,12.619,15.468,15.468,0,0,0-8.05-2.325c-7.271,0-10.961,4.63-17.3,5.825l.463-3.94c.28-1.961.536-2.465,2.189-2.727l4.672-.617v-.313l-3-.365.294-2.283c.076-.665.386-.968,1.221-1.071l2.433-.327v-.178l-2.591-.337a1.088,1.088,0,0,1-1.071-1.118l-.3-2.3A16.258,16.258,0,0,1,3980.317,512.422Zm-8.194,4.5,2.285.322c.753.084,1.021.452,1.121,1.257l.261,2.041-1.925-.281a1.96,1.96,0,0,1-1.552-1.966Zm3.376-1.586c-.13.73-.443.958-1.22,1.076l-2.2.276-.248-2.067a16.087,16.087,0,0,1,3.971-1.6Zm-6.213-11.726h1.87v2.435h1.946V503.61h1.87v6.126h-1.87v-2.41h-1.946v2.41h-1.87Zm1.94,11.381-.432,3.263a2.417,2.417,0,0,1-.545,1.48,2.524,2.524,0,0,1-1.46.6l-3.351.442A17.134,17.134,0,0,1,3971.226,514.992Zm-8.061-11.381a21.043,21.043,0,0,1,2.279-.128c1.921,0,3.1.615,3.1,2.332,0,1.563-1.1,2.46-2.843,2.46h-.666v1.461h-1.87Zm1.909,17.792,3.62.463a2.334,2.334,0,0,1,1.514.6c.32.359.459.573.652,1.922l.538,4.225a17.045,17.045,0,0,1-2.471.2,16.254,16.254,0,0,1-5.9-1.164A16.471,16.471,0,0,1,3965.074,521.4Zm20.866,17.859c1.473.159,2.158.646,2.315,2.1l.5,3.737a17.138,17.138,0,0,1-8.439,2.189,17.39,17.39,0,0,1-16.787-12.706,16.018,16.018,0,0,0,8.153,2.334c7.7,0,11.428-4.9,17.192-5.92l-.608,4.769c-.213,1.231-.551,1.765-2.031,2.011l-4.729.6v.324Zm3.394,5.53h0l.37-2.983c.244-1.684.514-2.292,2.15-2.5l3.392-.438A17.876,17.876,0,0,1,3989.334,544.791Zm6.257-6.515-3.426-.45c-1.764-.206-2.2-.64-2.428-2.355l-.582-4.524a16.894,16.894,0,0,1,2.507-.2,17.922,17.922,0,0,1,5.967,1.2A16.764,16.764,0,0,1,3995.591,538.276Zm-4.932-10.189c-8.188,0-11.528,6.024-19.738,6.024A14.879,14.879,0,0,1,3963,532h0c-.054-.489-.11-1.494-.122-2.152a14.786,14.786,0,0,0,7.1,1.7c8.1,0,11.752-6.067,19.72-6.067a15.247,15.247,0,0,1,7.923,2.1c.082.725.1,1.45.135,2.175A15.459,15.459,0,0,0,3990.659,528.086Zm4.47-18.222a6.178,6.178,0,0,1-1.946-.307l-.206-1.41a5.593,5.593,0,0,0,2.125.487c.692,0,.974-.2.974-.589,0-1-2.92-.564-2.92-2.717,0-1.249,1.024-1.846,2.536-1.846a7.323,7.323,0,0,1,1.716.179l.153,1.333a4.686,4.686,0,0,0-1.665-.308c-.538,0-.871.154-.871.487,0,.974,2.946.59,2.946,2.64C3997.972,509.352,3996.69,509.865,3995.128,509.865Z" transform="translate(-3960.207 -498.723)" fill="#fdfdfd"/>
  <path id="Trazado_86" data-name="Trazado 86" d="M4129.316,701.586c0-.769-.436-1.2-1.358-1.2-.1,0-.114,0-.224.006v2.531h.224A1.2,1.2,0,0,0,4129.316,701.586Z" transform="translate(-4122.822 -694.469)" fill="#fdfdfd"/>
  <path id="Trazado_87" data-name="Trazado 87" d="M4686.23,1900.056l1.935.248a.94.94,0,0,1,.939.984l.236,1.876h.143l.254-1.924c.121-.785.422-.845.977-.947l1.879-.238v-.145l-2.021-.26a.882.882,0,0,1-.824-.83l-.257-2.013h-.152l-.263,2.049a.851.851,0,0,1-.835.782l-2.011.271Z" transform="translate(-4664.942 -1855.814)" fill="#fdfdfd"/>
</svg>
