<svg xmlns="http://www.w3.org/2000/svg" xmlns:xlink="http://www.w3.org/1999/xlink" width="217" height="219.693" viewBox="0 0 217 219.693">
  <defs>
    <clipPath id="clip-path">
      <circle id="Elipse_512" data-name="Elipse 512" cx="84.5" cy="84.5" r="84.5" transform="translate(92 3586)" fill="none" stroke="#fff" stroke-width="2"/>
    </clipPath>
  </defs>
  <g id="Grupo_672" data-name="Grupo 672" transform="translate(-68 -3561)">
    <g id="Grupo_665" data-name="Grupo 665" transform="translate(-297.989 3233.533)">
      <g id="Grupo_664" data-name="Grupo 664" transform="translate(365.989 327.467)">
        <path id="Trazado_1468" data-name="Trazado 1468" d="M425.492,357.5a7.439,7.439,0,0,1,1.841,5.033,5.768,5.768,0,0,1-2.457,4.269,5.838,5.838,0,0,1-4.757,1.391,7.5,7.5,0,0,1-4.446-3.068,7.411,7.411,0,0,1-1.861-5.036,5.885,5.885,0,0,1,2.53-4.272,5.754,5.754,0,0,1,4.723-1.336A7.429,7.429,0,0,1,425.492,357.5ZM417,364.116a6.412,6.412,0,0,0,3.481,2.566,4.15,4.15,0,0,0,3.551-.969,4.106,4.106,0,0,0,1.806-3.2,8.108,8.108,0,0,0-5.1-6.554,4.092,4.092,0,0,0-3.531.965,4.169,4.169,0,0,0-1.822,3.217A6.344,6.344,0,0,0,417,364.116Z" transform="translate(-374.452 -332.232)" fill="#fff"/>
        <path id="Trazado_1469" data-name="Trazado 1469" d="M440.692,356.96l-3.289-5.668a2.646,2.646,0,0,0-1.416-1.315,2.294,2.294,0,0,0-1.834.358,2.91,2.91,0,0,0-1.583,1.913,4.336,4.336,0,0,0,.785,2.825l2.667,4.6-1.327.77-5.084-8.762,1.079-.625.912,1.073.064-.037a3.126,3.126,0,0,1,.561-1.666,4.281,4.281,0,0,1,1.432-1.307,3.852,3.852,0,0,1,2.825-.62,3.758,3.758,0,0,1,2.216,1.979l3.317,5.716Z" transform="translate(-377.25 -331.176)" fill="#fff"/>
        <path id="Trazado_1470" data-name="Trazado 1470" d="M451.331,352.241a4.652,4.652,0,0,1-3.8.159,5.3,5.3,0,0,1-2.705-2.966,5.874,5.874,0,0,1-.445-4.049,4.006,4.006,0,0,1,2.4-2.614,3.822,3.822,0,0,1,3.263-.053,4.8,4.8,0,0,1,2.334,2.588l.387.89-6.4,2.782a4.016,4.016,0,0,0,1.905,2.125,3.118,3.118,0,0,0,2.577-.113,8.154,8.154,0,0,0,2.694-1.917l.545,1.254a8.066,8.066,0,0,1-1.21,1.076A8.649,8.649,0,0,1,451.331,352.241Zm-4.056-8.285a2.509,2.509,0,0,0-1.467,1.505,3.668,3.668,0,0,0,.093,2.358l4.857-2.112a3.374,3.374,0,0,0-1.479-1.78A2.282,2.282,0,0,0,447.275,343.956Z" transform="translate(-379.832 -330.106)" fill="#fff"/>
        <path id="Trazado_1471" data-name="Trazado 1471" d="M455.172,335.149l4.031-1.2a8.107,8.107,0,0,1,4.233-.4,2.846,2.846,0,0,1,1.985,2.125,3.281,3.281,0,0,1,.021,2.067,2.274,2.274,0,0,1-1.183,1.325l.026.088a2.978,2.978,0,0,1,2.081.5,3.489,3.489,0,0,1,1.139,1.841,3.444,3.444,0,0,1-.46,3.145,5.781,5.781,0,0,1-3.184,2.024l-4.847,1.438Zm4.268,4.316,1.595-.473a3.043,3.043,0,0,0,1.515-.825,1.344,1.344,0,0,0,.161-1.291,1.192,1.192,0,0,0-.862-.906,3.652,3.652,0,0,0-1.819.188l-1.444.429Zm.647,2.18,1,3.376,1.79-.531a2.772,2.772,0,0,0,1.546-.932,1.673,1.673,0,0,0,.146-1.49q-.478-1.612-2.783-.929Z" transform="translate(-381.775 -328.519)" fill="#fff"/>
        <path id="Trazado_1472" data-name="Trazado 1472" d="M476.622,343.637l-2.768.536-2.734-14.119,2.768-.536Z" transform="translate(-384.598 -327.83)" fill="#fff"/>
        <path id="Trazado_1473" data-name="Trazado 1473" d="M487.6,342.983l-.685-1.342-.073.007a4.167,4.167,0,0,1-1.332,1.385,4.735,4.735,0,0,1-1.919.543,3.174,3.174,0,0,1-2.417-.608,3.27,3.27,0,0,1-1.1-2.323,2.725,2.725,0,0,1,.9-2.53,6.67,6.67,0,0,1,3.365-1.211l1.778-.237-.045-.45a1.406,1.406,0,0,0-1.76-1.4,7.315,7.315,0,0,0-2.82,1.039l-1.122-1.8a8.415,8.415,0,0,1,3.841-1.329,4.932,4.932,0,0,1,3.265.579,3.352,3.352,0,0,1,1.382,2.628l.7,6.851Zm-1.312-4.679-1.081.146a3.5,3.5,0,0,0-1.776.627,1.394,1.394,0,0,0-.472,1.293q.121,1.186,1.482,1.048a2.167,2.167,0,0,0,1.5-.719,1.978,1.978,0,0,0,.432-1.549Z" transform="translate(-386.18 -328.39)" fill="#fff"/>
        <path id="Trazado_1474" data-name="Trazado 1474" d="M498.12,341.978a3.356,3.356,0,0,1-2.834-1.467,7.923,7.923,0,0,1,.162-7.877,3.438,3.438,0,0,1,2.941-1.366,3.37,3.37,0,0,1,2.948,1.57l.092,0a11.478,11.478,0,0,1-.174-2.065l.06-3.308,2.828.052-.262,14.379-2.162-.039-.521-1.351-.12,0A3.228,3.228,0,0,1,498.12,341.978Zm1.03-2.228a1.909,1.909,0,0,0,1.6-.6,3.657,3.657,0,0,0,.588-2.125l.006-.305a4.229,4.229,0,0,0-.469-2.393,1.9,1.9,0,0,0-1.655-.751,1.653,1.653,0,0,0-1.479.773,4.26,4.26,0,0,0-.565,2.315,4.033,4.033,0,0,0,.485,2.3A1.722,1.722,0,0,0,499.149,339.75Z" transform="translate(-388.703 -327.467)" fill="#fff"/>
        <path id="Trazado_1475" data-name="Trazado 1475" d="M513.985,343.991a5.336,5.336,0,0,1-3.675-1.9,5.214,5.214,0,0,1-.858-4.057,5.731,5.731,0,0,1,1.837-3.8,4.625,4.625,0,0,1,3.751-.914,4.55,4.55,0,0,1,3.207,1.7,4.718,4.718,0,0,1,.736,3.582l-.187,1.355-6.6-.914a2.714,2.714,0,0,0,.448,1.956,2.5,2.5,0,0,0,1.757.924,7.8,7.8,0,0,0,1.775.049,8.793,8.793,0,0,0,1.806-.375l-.3,2.16a6.591,6.591,0,0,1-1.64.328A9.941,9.941,0,0,1,513.985,343.991Zm.8-8.679a1.787,1.787,0,0,0-1.469.371,2.623,2.623,0,0,0-.8,1.518l3.919.542a2.355,2.355,0,0,0-.32-1.673A1.846,1.846,0,0,0,514.784,335.311Z" transform="translate(-391.369 -328.492)" fill="#fff"/>
        <path id="Trazado_1476" data-name="Trazado 1476" d="M532.917,348.376a4.65,4.65,0,0,1-2.973-2.366,5.292,5.292,0,0,1-.1-4.013,5.877,5.877,0,0,1,2.315-3.352,4,4,0,0,1,3.522-.406,3.816,3.816,0,0,1,2.5,2.1,4.8,4.8,0,0,1,.07,3.485l-.291.926-6.658-2.088a4.014,4.014,0,0,0,.049,2.854,3.119,3.119,0,0,0,2.021,1.6,8.166,8.166,0,0,0,3.291.315l-.409,1.305a8.145,8.145,0,0,1-1.62.02A8.63,8.63,0,0,1,532.917,348.376Zm2.36-8.917a2.51,2.51,0,0,0-2.095.176,3.669,3.669,0,0,0-1.474,1.844l5.053,1.584a3.371,3.371,0,0,0,.048-2.314A2.278,2.278,0,0,0,535.277,339.458Z" transform="translate(-394.931 -329.333)" fill="#fff"/>
        <path id="Trazado_1477" data-name="Trazado 1477" d="M547.216,353.673l2.672-5.983a2.644,2.644,0,0,0,.239-1.918,2.3,2.3,0,0,0-1.363-1.276,2.911,2.911,0,0,0-2.477-.165,4.34,4.34,0,0,0-1.832,2.29l-2.168,4.852-1.4-.625,4.131-9.25,1.139.509-.337,1.368.067.03a3.13,3.13,0,0,1,1.68-.52,4.3,4.3,0,0,1,1.9.4,3.848,3.848,0,0,1,2.155,1.929,3.758,3.758,0,0,1-.307,2.955l-2.7,6.034Z" transform="translate(-396.946 -329.968)" fill="#fff"/>
        <path id="Trazado_1478" data-name="Trazado 1478" d="M565.412,364.424l1.009-3.208-4.064-2.783-2.626,2.1-2.546-1.745,11.6-8.5,2.89,1.979-3.717,13.9Zm1.8-5.577q1.349-4.374,1.532-4.944t.31-.886q-.921.8-4.747,3.84Z" transform="translate(-399.831 -331.507)" fill="#fff"/>
        <path id="Trazado_1479" data-name="Trazado 1479" d="M574.756,372.3q-3.632-3.175-.147-7.163a5.648,5.648,0,0,1,3.637-2.167,4.925,4.925,0,0,1,3.748,1.428,7.184,7.184,0,0,1,1.96,2.646l-2.062,1.1q-.325-.641-.644-1.146a3.985,3.985,0,0,0-.751-.884q-1.655-1.447-3.712.905-1.995,2.283-.339,3.73a5.037,5.037,0,0,0,1.277.828,5.421,5.421,0,0,0,1.491.4l-1.588,1.816a4.568,4.568,0,0,1-1.436-.457A7.775,7.775,0,0,1,574.756,372.3Z" transform="translate(-402.613 -333.748)" fill="#fff"/>
        <path id="Trazado_1480" data-name="Trazado 1480" d="M583.177,380.6q-3.295-3.523.573-7.141a5.651,5.651,0,0,1,3.837-1.79,4.923,4.923,0,0,1,3.585,1.8,7.176,7.176,0,0,1,1.684,2.829l-2.161.882q-.259-.669-.525-1.2a3.986,3.986,0,0,0-.658-.954q-1.5-1.607-3.784.527-2.215,2.072-.713,3.678a5.015,5.015,0,0,0,1.188.951,5.428,5.428,0,0,0,1.443.549l-1.762,1.648a4.532,4.532,0,0,1-1.383-.6A7.758,7.758,0,0,1,583.177,380.6Z" transform="translate(-404.164 -335.291)" fill="#fff"/>
        <path id="Trazado_1481" data-name="Trazado 1481" d="M589.831,387.812l-1.754-2.208,8.093-6.425,1.753,2.207Zm8.356-10.389q1.079-.857,2.033.345t-.124,2.058a1.347,1.347,0,0,1-1.039.335,1.613,1.613,0,0,1-1-.675A1.294,1.294,0,0,1,598.187,377.423Z" transform="translate(-405.299 -336.246)" fill="#fff"/>
        <path id="Trazado_1482" data-name="Trazado 1482" d="M602.192,396.957a5.552,5.552,0,0,1-4.03,1.049,4.823,4.823,0,0,1-3.222-2.319,5.186,5.186,0,0,1-.894-2.554,4.335,4.335,0,0,1,.608-2.486,6.3,6.3,0,0,1,2.047-2.071,5.527,5.527,0,0,1,4.018-1.053,4.859,4.859,0,0,1,3.211,2.338,5.21,5.21,0,0,1,.9,2.55,4.316,4.316,0,0,1-.6,2.479A6.243,6.243,0,0,1,602.192,396.957Zm-3.916-5.977a4.336,4.336,0,0,0-1.664,1.694,1.8,1.8,0,0,0,.242,1.8,1.771,1.771,0,0,0,1.542.928,4.388,4.388,0,0,0,2.216-.86,4.266,4.266,0,0,0,1.651-1.679,2.121,2.121,0,0,0-1.784-2.732A4.278,4.278,0,0,0,598.276,390.981Zm5.582-2.95.208-.137a26.087,26.087,0,0,0,3.517.292l1.733,2.644-.163.106q-.665-.14-2.094-.589t-2.174-.746Z" transform="translate(-406.354 -338.086)" fill="#fff"/>
        <path id="Trazado_1483" data-name="Trazado 1483" d="M604.174,412.382l-1.239-2.532,5.422-2.651a2.9,2.9,0,0,0,1.332-1.094,1.444,1.444,0,0,0-.053-1.383,1.905,1.905,0,0,0-1.461-1.19,4.912,4.912,0,0,0-2.586.677l-4.368,2.136-1.238-2.532,9.283-4.539.946,1.935-1.021.921.069.142a2.98,2.98,0,0,1,1.588.669,4.427,4.427,0,0,1,1.17,1.521,3.613,3.613,0,0,1,.325,2.886,3.911,3.911,0,0,1-2.118,2.075Z" transform="translate(-407.407 -340.177)" fill="#fff"/>
        <path id="Trazado_1484" data-name="Trazado 1484" d="M612.546,421.532l2.2-.694,1.49,4.735-2.2.693Z" transform="translate(-409.63 -343.994)" fill="#fff"/>
        <path id="Trazado_1485" data-name="Trazado 1485" d="M620.577,447.762a7.441,7.441,0,0,1-5.284-.9,5.771,5.771,0,0,1-2.49-4.25,5.839,5.839,0,0,1,1.15-4.821,7.5,7.5,0,0,1,4.868-2.341,7.405,7.405,0,0,1,5.3.881,5.881,5.881,0,0,1,2.457,4.315,5.754,5.754,0,0,1-1.18,4.764A7.437,7.437,0,0,1,620.577,447.762ZM619.04,437.1a6.417,6.417,0,0,0-3.954,1.751,4.774,4.774,0,0,0,.964,6.72,8.1,8.1,0,0,0,8.22-1.179,4.094,4.094,0,0,0,.914-3.546,4.17,4.17,0,0,0-1.892-3.178A6.345,6.345,0,0,0,619.04,437.1Z" transform="translate(-409.66 -346.56)" fill="#fff"/>
        <path id="Trazado_1486" data-name="Trazado 1486" d="M614.261,461.654l6.552-.107a2.647,2.647,0,0,0,1.839-.593,2.3,2.3,0,0,0,.581-1.775,2.91,2.91,0,0,0-.9-2.315,4.338,4.338,0,0,0-2.849-.693l-5.313.086-.026-1.533,10.129-.165.021,1.248-1.383.272,0,.074a3.13,3.13,0,0,1,1.181,1.3,4.3,4.3,0,0,1,.442,1.888,3.847,3.847,0,0,1-.838,2.768,3.752,3.752,0,0,1-2.808.97l-6.608.107Z" transform="translate(-409.914 -349.963)" fill="#fff"/>
        <path id="Trazado_1487" data-name="Trazado 1487" d="M613.266,472.994A4.654,4.654,0,0,1,615,469.613a5.3,5.3,0,0,1,3.915-.889,5.868,5.868,0,0,1,3.741,1.611,4.008,4.008,0,0,1,1.092,3.374,3.825,3.825,0,0,1-1.565,2.864,4.8,4.8,0,0,1-3.4.753l-.965-.1.737-6.94a4.016,4.016,0,0,0-2.788.61,3.114,3.114,0,0,0-1.174,2.3,8.158,8.158,0,0,0,.338,3.289l-1.36-.145a8.134,8.134,0,0,1-.338-1.583A8.683,8.683,0,0,1,613.266,472.994Zm9.207.561a2.505,2.505,0,0,0-.584-2.02,3.667,3.667,0,0,0-2.1-1.082l-.56,5.266a3.37,3.37,0,0,0,2.279-.408A2.272,2.272,0,0,0,622.473,473.555Z" transform="translate(-409.747 -352.462)" fill="#fff"/>
        <path id="Trazado_1488" data-name="Trazado 1488" d="M625.4,484.58l-.947,4.1a8.1,8.1,0,0,1-1.737,3.881,2.849,2.849,0,0,1-2.827.679,3.279,3.279,0,0,1-1.808-1,2.276,2.276,0,0,1-.57-1.683l-.09-.021a2.975,2.975,0,0,1-1.462,1.564,3.49,3.49,0,0,1-2.164.084,3.443,3.443,0,0,1-2.508-1.951,5.78,5.78,0,0,1-.192-3.768l1.14-4.926Zm-8.074,1.073-3.431-.793-.421,1.819a2.769,2.769,0,0,0,.048,1.8,1.672,1.672,0,0,0,1.224.861q1.639.38,2.18-1.961Zm2.216.513-.375,1.621a3.045,3.045,0,0,0-.029,1.724,1.345,1.345,0,0,0,1.044.778,1.2,1.2,0,0,0,1.213-.3,3.66,3.66,0,0,0,.733-1.676l.34-1.468Z" transform="translate(-409.336 -354.738)" fill="#fff"/>
        <path id="Trazado_1489" data-name="Trazado 1489" d="M607.676,498.825l.9-2.672,13.633,4.582-.9,2.672Z" transform="translate(-408.768 -357.325)" fill="#fff"/>
        <path id="Trazado_1490" data-name="Trazado 1490" d="M603.151,508.837l1.505.067.03-.067a4.168,4.168,0,0,1-.548-1.841,4.743,4.743,0,0,1,.475-1.938,3.174,3.174,0,0,1,1.722-1.8,3.271,3.271,0,0,1,2.561.193,2.729,2.729,0,0,1,1.757,2.03,6.676,6.676,0,0,1-.607,3.525l-.672,1.664.415.182a1.406,1.406,0,0,0,2.086-.839,7.351,7.351,0,0,0,.488-2.967l2.118-.087a8.4,8.4,0,0,1-.74,4,4.92,4.92,0,0,1-2.113,2.554,3.35,3.35,0,0,1-2.968-.094l-6.3-2.774ZM607.869,510l.406-1.013a3.492,3.492,0,0,0,.331-1.853,1.4,1.4,0,0,0-.891-1.049q-1.091-.48-1.643.772a2.171,2.171,0,0,0-.115,1.661,1.984,1.984,0,0,0,1.134,1.141Z" transform="translate(-407.827 -358.55)" fill="#fff"/>
        <path id="Trazado_1491" data-name="Trazado 1491" d="M598,518.2a3.355,3.355,0,0,1,2.677-1.736,7.919,7.919,0,0,1,6.763,4.043,3.438,3.438,0,0,1-.271,3.232,3.372,3.372,0,0,1-2.824,1.783l-.048.079a11.505,11.505,0,0,1,1.88.871l2.844,1.691-1.445,2.431-12.362-7.35,1.105-1.859,1.431.216.061-.1A3.227,3.227,0,0,1,598,518.2Zm1.425,2a1.91,1.91,0,0,0-.271,1.684,3.661,3.661,0,0,0,1.555,1.564l.262.156a4.228,4.228,0,0,0,2.313.777,1.907,1.907,0,0,0,1.472-1.066,1.654,1.654,0,0,0,.061-1.667,4.267,4.267,0,0,0-1.731-1.637,4.04,4.04,0,0,0-2.236-.716A1.719,1.719,0,0,0,599.428,520.2Z" transform="translate(-406.563 -360.917)" fill="#fff"/>
        <path id="Trazado_1492" data-name="Trazado 1492" d="M589.267,531.405a5.34,5.34,0,0,1,3.471-2.25,5.215,5.215,0,0,1,3.948,1.267,5.735,5.735,0,0,1,2.39,3.48,4.622,4.622,0,0,1-1.067,3.71,4.553,4.553,0,0,1-3.069,1.941,4.723,4.723,0,0,1-3.476-1.137l-1.084-.835,4.066-5.279a2.717,2.717,0,0,0-1.921-.581,2.509,2.509,0,0,0-1.674,1.067,7.757,7.757,0,0,0-.923,1.518,8.841,8.841,0,0,0-.57,1.755l-1.728-1.33a6.6,6.6,0,0,1,.528-1.588A10.007,10.007,0,0,1,589.267,531.405Zm7.141,5a1.79,1.79,0,0,0,.407-1.46,2.635,2.635,0,0,0-.923-1.445l-2.413,3.134a2.346,2.346,0,0,0,1.611.552A1.845,1.845,0,0,0,596.408,536.4Z" transform="translate(-405.22 -363.159)" fill="#fff"/>
        <path id="Trazado_1493" data-name="Trazado 1493" d="M576.2,545.7a4.654,4.654,0,0,1,3.526-1.416,5.3,5.3,0,0,1,3.54,1.895,5.866,5.866,0,0,1,1.769,3.669,4,4,0,0,1-1.388,3.263,3.817,3.817,0,0,1-3.057,1.138,4.8,4.8,0,0,1-3.064-1.662l-.662-.709,5.106-4.757a4.02,4.02,0,0,0-2.505-1.368,3.12,3.12,0,0,0-2.392.965,8.16,8.16,0,0,0-1.9,2.705l-.932-1a8.085,8.085,0,0,1,.783-1.418A8.646,8.646,0,0,1,576.2,545.7Zm6.586,6.459a2.507,2.507,0,0,0,.881-1.909,3.657,3.657,0,0,0-.874-2.192l-3.875,3.61a3.369,3.369,0,0,0,1.988,1.185A2.276,2.276,0,0,0,582.787,552.156Z" transform="translate(-402.85 -365.842)" fill="#fff"/>
        <path id="Trazado_1494" data-name="Trazado 1494" d="M564.062,555.309l3.888,5.276a2.644,2.644,0,0,0,1.55,1.153,2.3,2.3,0,0,0,1.784-.556,2.914,2.914,0,0,0,1.365-2.074,4.341,4.341,0,0,0-1.089-2.723l-3.153-4.277,1.235-.911,6.01,8.154-1,.741-1.023-.969-.059.044a3.134,3.134,0,0,1-.376,1.718,4.288,4.288,0,0,1-1.281,1.455,3.847,3.847,0,0,1-2.741.924,3.757,3.757,0,0,1-2.42-1.724l-3.921-5.32Z" transform="translate(-400.83 -367.068)" fill="#fff"/>
        <path id="Trazado_1495" data-name="Trazado 1495" d="M544.839,565.92l2.294,2.459,4.424-2.165-.533-3.32,2.773-1.357,1.68,14.284-3.145,1.54-10.265-10.083Zm3.964,4.317q3.142,3.329,3.547,3.769t.618.706q-.246-1.2-1-6.023Z" transform="translate(-397.155 -368.898)" fill="#fff"/>
        <path id="Trazado_1496" data-name="Trazado 1496" d="M534.965,570.334q4.555-1.591,6.3,3.409a5.642,5.642,0,0,1,.088,4.232,4.924,4.924,0,0,1-3.092,2.555,7.193,7.193,0,0,1-3.268.4l.066-2.334q.717.033,1.314.007a3.956,3.956,0,0,0,1.138-.217q2.076-.726,1.046-3.675-1-2.861-3.076-2.136a5.015,5.015,0,0,0-1.351.7,5.434,5.434,0,0,0-1.085,1.1l-.8-2.276a4.54,4.54,0,0,1,1.106-1.024A7.8,7.8,0,0,1,534.965,570.334Z" transform="translate(-395.418 -370.387)" fill="#fff"/>
        <path id="Trazado_1497" data-name="Trazado 1497" d="M523.66,573.572q4.694-1.118,5.922,4.033a5.653,5.653,0,0,1-.343,4.22,4.924,4.924,0,0,1-3.337,2.225,7.168,7.168,0,0,1-3.291.063l.3-2.315q.709.106,1.306.14a3.955,3.955,0,0,0,1.155-.1q2.139-.51,1.416-3.549-.7-2.949-2.843-2.439a5.021,5.021,0,0,0-1.415.56,5.447,5.447,0,0,0-1.192.983l-.56-2.347a4.548,4.548,0,0,1,1.2-.9A7.757,7.757,0,0,1,523.66,573.572Z" transform="translate(-393.388 -370.993)" fill="#fff"/>
        <path id="Trazado_1498" data-name="Trazado 1498" d="M514.348,575.584l2.786-.429,1.569,10.213-2.786.429Zm4.879,12.408q.21,1.36-1.307,1.593t-1.726-1.128a1.339,1.339,0,0,1,.224-1.067,1.614,1.614,0,0,1,1.082-.536Q519.016,586.621,519.227,587.991Z" transform="translate(-392.249 -371.309)" fill="#fff"/>
        <path id="Trazado_1499" data-name="Trazado 1499" d="M499.84,581.982a5.556,5.556,0,0,1,1.086-4.021,4.828,4.828,0,0,1,3.611-1.648,5.183,5.183,0,0,1,2.661.489,4.339,4.339,0,0,1,1.858,1.761,6.286,6.286,0,0,1,.784,2.8,5.52,5.52,0,0,1-1.076,4.011,4.857,4.857,0,0,1-3.623,1.631,5.215,5.215,0,0,1-2.659-.485,4.318,4.318,0,0,1-1.858-1.746A6.242,6.242,0,0,1,499.84,581.982Zm6.927,5.87.016.249a25.935,25.935,0,0,0-2,2.91l-3.155.193-.012-.193q.451-.509,1.551-1.526t1.726-1.518Zm.2-6.31a4.333,4.333,0,0,0-.645-2.284,1.8,1.8,0,0,0-1.685-.684,1.773,1.773,0,0,0-1.571.88,4.393,4.393,0,0,0-.351,2.35,4.264,4.264,0,0,0,.639,2.266,2.121,2.121,0,0,0,3.257-.2A4.261,4.261,0,0,0,506.972,581.542Z" transform="translate(-389.678 -371.511)" fill="#fff"/>
        <path id="Trazado_1500" data-name="Trazado 1500" d="M485.123,576.182l2.814.174-.372,6.023a2.9,2.9,0,0,0,.293,1.7,1.449,1.449,0,0,0,1.23.637,1.9,1.9,0,0,0,1.755-.684,4.9,4.9,0,0,0,.687-2.583l.3-4.852,2.814.174-.637,10.314-2.15-.133-.3-1.343-.157-.01a2.975,2.975,0,0,1-1.365,1.05,4.43,4.43,0,0,1-1.9.267,3.612,3.612,0,0,1-2.67-1.142,3.916,3.916,0,0,1-.759-2.866Z" transform="translate(-387 -371.49)" fill="#fff"/>
        <path id="Trazado_1501" data-name="Trazado 1501" d="M474.716,579.26l-.483,2.26-4.854-1.039.484-2.259Z" transform="translate(-384.289 -371.851)" fill="#fff"/>
        <path id="Trazado_1502" data-name="Trazado 1502" d="M445.932,572.752a7.442,7.442,0,0,1,3.385-4.154,5.769,5.769,0,0,1,4.925-.071,5.844,5.844,0,0,1,3.627,3.377,7.5,7.5,0,0,1-.365,5.391,7.4,7.4,0,0,1-3.378,4.172,5.874,5.874,0,0,1-4.965.01A5.755,5.755,0,0,1,445.6,578.1,7.437,7.437,0,0,1,445.932,572.752Zm10.029,3.92a6.408,6.408,0,0,0,.426-4.3,4.773,4.773,0,0,0-6.321-2.476,8.11,8.11,0,0,0-3.028,7.733,4.091,4.091,0,0,0,2.634,2.542,4.174,4.174,0,0,0,3.7-.077A6.35,6.35,0,0,0,455.961,576.672Z" transform="translate(-380.017 -370.044)" fill="#fff"/>
        <path id="Trazado_1503" data-name="Trazado 1503" d="M437.8,560.325l-3.195,5.721a2.644,2.644,0,0,0-.41,1.889,2.3,2.3,0,0,0,1.244,1.393,2.914,2.914,0,0,0,2.453.386,4.342,4.342,0,0,0,2.029-2.118l2.592-4.639,1.34.748-4.94,8.844-1.09-.608.458-1.333-.065-.035a3.133,3.133,0,0,1-1.719.369,4.3,4.3,0,0,1-1.855-.565,3.845,3.845,0,0,1-1.974-2.113,3.755,3.755,0,0,1,.57-2.916l3.222-5.77Z" transform="translate(-377.772 -368.551)" fill="#fff"/>
        <path id="Trazado_1504" data-name="Trazado 1504" d="M428.477,554.026a4.655,4.655,0,0,1,2.075,3.182,5.293,5.293,0,0,1-1.169,3.841,5.87,5.87,0,0,1-3.254,2.452,4,4,0,0,1-3.471-.726A3.818,3.818,0,0,1,420.947,560a4.8,4.8,0,0,1,1.033-3.329l.568-.788,5.66,4.082a4.015,4.015,0,0,0,.853-2.723,3.117,3.117,0,0,0-1.413-2.159,8.149,8.149,0,0,0-3.024-1.337l.8-1.109a8.183,8.183,0,0,1,1.543.491A8.71,8.71,0,0,1,428.477,554.026Zm-5.052,7.717a2.507,2.507,0,0,0,2.043.494,3.663,3.663,0,0,0,1.98-1.285l-4.3-3.1a3.375,3.375,0,0,0-.775,2.181A2.278,2.278,0,0,0,423.425,561.743Z" transform="translate(-375.713 -367.322)" fill="#fff"/>
        <path id="Trazado_1505" data-name="Trazado 1505" d="M411.515,558.737l-3.091-2.851a8.089,8.089,0,0,1-2.513-3.43,2.845,2.845,0,0,1,.809-2.793,3.281,3.281,0,0,1,1.765-1.076,2.27,2.27,0,0,1,1.743.339l.063-.068a2.983,2.983,0,0,1-.635-2.044,3.486,3.486,0,0,1,1-1.921,3.44,3.44,0,0,1,2.937-1.214,5.771,5.771,0,0,1,3.369,1.7l3.717,3.427Zm1.522-5.876-1.223-1.128a3.043,3.043,0,0,0-1.484-.879,1.346,1.346,0,0,0-1.193.523,1.2,1.2,0,0,0-.337,1.2,3.668,3.668,0,0,0,1.093,1.467L411,555.069Zm1.541-1.671,2.388-2.589-1.372-1.266a2.768,2.768,0,0,0-1.592-.851,1.672,1.672,0,0,0-1.354.636q-1.141,1.237.625,2.867Z" transform="translate(-373.038 -365.735)" fill="#fff"/>
        <path id="Trazado_1506" data-name="Trazado 1506" d="M408.414,536.825l1.88,2.1-10.718,9.589-1.88-2.1Z" transform="translate(-371.601 -364.524)" fill="#fff"/>
        <path id="Trazado_1507" data-name="Trazado 1507" d="M401.821,527.451l-.8,1.276.044.059a4.15,4.15,0,0,1,1.872.432,4.721,4.721,0,0,1,1.452,1.368,3.173,3.173,0,0,1,.719,2.386,3.27,3.27,0,0,1-1.43,2.133,2.727,2.727,0,0,1-2.634.527,6.672,6.672,0,0,1-2.767-2.265l-1.116-1.406-.363.272a1.405,1.405,0,0,0-.3,2.229,7.34,7.34,0,0,0,2.341,1.886l-.969,1.887a8.4,8.4,0,0,1-3.113-2.614,4.931,4.931,0,0,1-1.18-3.1,3.346,3.346,0,0,1,1.546-2.535l5.521-4.116Zm-3.341,3.528.681.852a3.481,3.481,0,0,0,1.449,1.2,1.392,1.392,0,0,0,1.352-.258q.955-.712.138-1.809a2.169,2.169,0,0,0-1.388-.919,1.981,1.981,0,0,0-1.551.425Z" transform="translate(-370.872 -362.585)" fill="#fff"/>
        <path id="Trazado_1508" data-name="Trazado 1508" d="M395.192,518.445a3.357,3.357,0,0,1,.193,3.185,7.922,7.922,0,0,1-6.849,3.9,3.437,3.437,0,0,1-2.679-1.826,3.371,3.371,0,0,1-.162-3.336l-.046-.081a11.409,11.409,0,0,1-1.684,1.208l-2.871,1.643-1.4-2.454,12.484-7.141,1.074,1.877-.893,1.139.059.1A3.227,3.227,0,0,1,395.192,518.445Zm-2.441.257a1.908,1.908,0,0,0-1.332-1.063,3.644,3.644,0,0,0-2.127.583l-.264.151a4.22,4.22,0,0,0-1.816,1.63,1.9,1.9,0,0,0,.2,1.806,1.654,1.654,0,0,0,1.421.875,4.273,4.273,0,0,0,2.277-.7,4.043,4.043,0,0,0,1.724-1.594A1.72,1.72,0,0,0,392.751,518.7Z" transform="translate(-368.414 -360.402)" fill="#fff"/>
        <path id="Trazado_1509" data-name="Trazado 1509" d="M389.164,504.453a5.336,5.336,0,0,1,.246,4.13,5.216,5.216,0,0,1-3.048,2.81,5.736,5.736,0,0,1-4.206.363,4.621,4.621,0,0,1-2.7-2.757,4.553,4.553,0,0,1-.175-3.627,4.72,4.72,0,0,1,2.7-2.464l1.261-.532,2.589,6.141a2.715,2.715,0,0,0,1.452-1.385,2.505,2.505,0,0,0-.1-1.983,7.809,7.809,0,0,0-.864-1.551,8.893,8.893,0,0,0-1.246-1.36l2.01-.847a6.59,6.59,0,0,1,1.121,1.242A9.967,9.967,0,0,1,389.164,504.453ZM381.3,508.2a1.786,1.786,0,0,0,1.07,1.074,2.624,2.624,0,0,0,1.712-.091l-1.537-3.644a2.348,2.348,0,0,0-1.275,1.129A1.847,1.847,0,0,0,381.3,508.2Z" transform="translate(-368.288 -358.252)" fill="#fff"/>
        <path id="Trazado_1510" data-name="Trazado 1510" d="M383.3,486.187a4.649,4.649,0,0,1-.516,3.764,5.292,5.292,0,0,1-3.4,2.138,5.875,5.875,0,0,1-4.064-.279,4,4,0,0,1-2.148-2.821,3.818,3.818,0,0,1,.525-3.22,4.8,4.8,0,0,1,2.96-1.839l.945-.224,1.606,6.791a4.009,4.009,0,0,0,2.428-1.5,3.119,3.119,0,0,0,.346-2.556,8.156,8.156,0,0,0-1.41-2.99l1.331-.315a8.15,8.15,0,0,1,.844,1.382A8.6,8.6,0,0,1,383.3,486.187Zm-8.872,2.524a2.505,2.505,0,0,0,1.221,1.71,3.665,3.665,0,0,0,2.338.327l-1.219-5.154a3.378,3.378,0,0,0-2.015,1.142A2.278,2.278,0,0,0,374.433,488.711Z" transform="translate(-367.237 -355.021)" fill="#fff"/>
        <path id="Trazado_1511" data-name="Trazado 1511" d="M380.6,470.808l-6.508.763a2.641,2.641,0,0,0-1.77.774,2.3,2.3,0,0,0-.4,1.825,2.91,2.91,0,0,0,1.125,2.213,4.334,4.334,0,0,0,2.9.4l5.279-.618.179,1.524-10.061,1.178-.146-1.239,1.348-.409-.008-.073a3.137,3.137,0,0,1-1.306-1.179,4.288,4.288,0,0,1-.629-1.834,3.846,3.846,0,0,1,.556-2.839,3.752,3.752,0,0,1,2.7-1.246l6.563-.77Z" transform="translate(-366.797 -352.569)" fill="#fff"/>
        <path id="Trazado_1512" data-name="Trazado 1512" d="M379.852,448.747l-3.271.78-.3,4.917,3.15,1.175-.19,3.081-13.249-5.595.215-3.5,13.837-3.945Zm-5.712,1.315q-4.447,1.088-5.029,1.223t-.919.188q1.162.377,5.732,2.1Z" transform="translate(-365.989 -348.389)" fill="#fff"/>
        <path id="Trazado_1513" data-name="Trazado 1513" d="M382.334,437.943q-.862,4.745-6.073,3.8a5.654,5.654,0,0,1-3.726-2.011,4.923,4.923,0,0,1-.7-3.95,7.172,7.172,0,0,1,1.265-3.039l2,1.208q-.383.606-.653,1.14a4,4,0,0,0-.373,1.1q-.393,2.165,2.681,2.722,2.983.542,3.375-1.622a5.006,5.006,0,0,0,.056-1.522,5.415,5.415,0,0,0-.421-1.486l2.373.431a4.536,4.536,0,0,1,.345,1.467A7.751,7.751,0,0,1,382.334,437.943Z" transform="translate(-367.003 -346.102)" fill="#fff"/>
        <path id="Trazado_1514" data-name="Trazado 1514" d="M385.129,426.373q-1.339,4.633-6.427,3.164a5.648,5.648,0,0,1-3.5-2.378,4.928,4.928,0,0,1-.292-4,7.18,7.18,0,0,1,1.569-2.895l1.864,1.4q-.442.565-.765,1.068a3.959,3.959,0,0,0-.482,1.053q-.612,2.113,2.39,2.98,2.912.843,3.523-1.271a5.024,5.024,0,0,0,.21-1.508,5.461,5.461,0,0,0-.268-1.521l2.318.67a4.538,4.538,0,0,1,.193,1.494A7.765,7.765,0,0,1,385.129,426.373Z" transform="translate(-367.518 -343.892)" fill="#fff"/>
        <path id="Trazado_1515" data-name="Trazado 1515" d="M374.259,415.11q-1.288-.49-.742-1.923t1.832-.945a1.343,1.343,0,0,1,.819.722,1.607,1.607,0,0,1-.068,1.2Q375.555,415.6,374.259,415.11Zm13.2,1.874-1,2.634-9.659-3.671,1-2.635Z" transform="translate(-367.293 -342.45)" fill="#fff"/>
        <path id="Trazado_1516" data-name="Trazado 1516" d="M380.371,404.167l-.224-.109a26.093,26.093,0,0,0-1.544-3.174l1.389-2.838.174.085q.221.643.561,2.1t.467,2.252Zm8.526-3.123a5.55,5.55,0,0,1,2.96,2.931,4.824,4.824,0,0,1-.351,3.955A5.175,5.175,0,0,1,389.767,410a4.336,4.336,0,0,1-2.449.747,6.3,6.3,0,0,1-2.825-.7,5.523,5.523,0,0,1-2.955-2.918,4.853,4.853,0,0,1,.372-3.954,5.2,5.2,0,0,1,1.735-2.073,4.317,4.317,0,0,1,2.436-.752A6.232,6.232,0,0,1,388.9,401.044Zm-3.141,6.417a4.33,4.33,0,0,0,2.305.568,1.8,1.8,0,0,0,1.427-1.128,1.773,1.773,0,0,0,.011-1.8,4.388,4.388,0,0,0-1.871-1.465,4.27,4.27,0,0,0-2.286-.564A2.122,2.122,0,0,0,383.9,406,4.26,4.26,0,0,0,385.757,407.461Z" transform="translate(-368.222 -339.96)" fill="#fff"/>
        <path id="Trazado_1517" data-name="Trazado 1517" d="M401.472,391.5l-1.546,2.357-5.047-3.308a2.9,2.9,0,0,0-1.621-.588,1.445,1.445,0,0,0-1.161.753,1.9,1.9,0,0,0-.277,1.862,4.893,4.893,0,0,0,1.9,1.877l4.066,2.666-1.546,2.357-8.642-5.666,1.181-1.8,1.313.407.086-.132a2.973,2.973,0,0,1-.235-1.706,4.41,4.41,0,0,1,.71-1.783,3.612,3.612,0,0,1,2.315-1.754,3.91,3.91,0,0,1,2.866.762Z" transform="translate(-369.814 -338.004)" fill="#fff"/>
        <path id="Trazado_1518" data-name="Trazado 1518" d="M405.842,381.594l-1.723-1.538,3.305-3.7,1.723,1.538Z" transform="translate(-372.738 -336.12)" fill="#fff"/>
      </g>
    </g>
    <g id="Enmascarar_grupo_22" data-name="Enmascarar grupo 22" clip-path="url(#clip-path)">
      <path id="Unión_40" data-name="Unión 40" d="M24.867,222.4a13.944,13.944,0,0,1-12.267-7.29c-4.226-7.72-4.382-15.126-4.539-20.8S5.517,98.872,6.456,85.479s3.717-25.762,4.657-39.943a211.736,211.736,0,0,0,0-26.628L9.078,14.181H0L1.1,0H48.641l1.1,14.181H40.658l-2.035,4.727a211.736,211.736,0,0,0,0,26.628c.939,14.181,3.718,26.55,4.657,39.943s-1.448,103.166-1.6,108.838-.313,13.078-4.539,20.8a13.941,13.941,0,0,1-12.092,7.292Z" transform="translate(151.933 3605)" fill="#cbdb2a"/>
    </g>
    <g id="Elipse_513" data-name="Elipse 513" transform="translate(92 3586)" fill="none" stroke="#fff" stroke-width="2">
      <circle cx="84.5" cy="84.5" r="84.5" stroke="none"/>
      <circle cx="84.5" cy="84.5" r="83.5" fill="none"/>
    </g>
  </g>
</svg>
