<svg xmlns="http://www.w3.org/2000/svg" width="24.607" height="19.139" viewBox="0 0 24.607 19.139">
  <path id="Youtube" d="M12.3,19.139h0c-.064,0-6.43-.046-8.358-.261-.1-.024-.23-.043-.376-.064A3.45,3.45,0,0,1,1.23,17.7a6.544,6.544,0,0,1-.976-2.7A43.568,43.568,0,0,1,0,10.614V8.569C0,6.38.252,4.154.255,4.132a5.95,5.95,0,0,1,.976-2.7A3.352,3.352,0,0,1,3.617.311h.005L3.691.3C7.087.047,12.252,0,12.3,0s5.217.047,8.613.3l.117.01a3.133,3.133,0,0,1,2.344,1.121,6.544,6.544,0,0,1,.976,2.7c0,.022.255,2.246.255,4.437v2.045c0,2.146-.252,4.371-.255,4.393a6.546,6.546,0,0,1-.976,2.7,3.352,3.352,0,0,1-2.387,1.124h-.005l-.069.006C17.519,19.135,12.355,19.139,12.3,19.139ZM9.334,5.176v9.439L17.395,10Z" fill="#fff"/>
</svg>
